<svg height="64" width="64" id="Layer_1" xmlns="http://www.w3.org/2000/svg" version="1.1" viewBox="44.66 -14.44 1005.78 1005.78">
  <path d="M766,79l-116.2,258.3c-14.5,24.1-34.5,44.7-58.5,59.5l-31.3,15.2c41.4,1.8,84.6-5,124.8,6.7,64.5,18.9,111.7,77.6,117.3,144.7v375.5h-163.5l-1.5-1.5v-433.5l-10.8,17.7c-22.9,32.8-59.7,52.9-99.7,55.3H229s0,362,0,362H64V80h165v332h207l145-333h185Z"/>
  <path d="M843,246c2.6-6.4,20.9-24.1,20.9-29.5s-9.8-15.8-12.1-19.8c-34.4-61.1-9.7-148.5,68.6-153.7,75.8-5,110.7,48.4,100.3,119.3-8.3,56.3-43.8,74.5-96.2,79.8-27,2.7-54.5,3.3-81.5,4Z"/>
</svg>
